{
  "accessors": [
    {
      "bufferView": 2,
      "componentType": 5126,
      "count": 2159,
      "max": [
        0.19589999318122864,
        0.24320000410079956,
        0.49070000648498535
      ],
      "min": [
        -0.19589999318122864,
        -0.20399999618530273,
        -0.00139999995008111
      ],
      "type": "VEC3"
    },
    {
      "bufferView": 2,
      "byteOffset": 25908,
      "componentType": 5126,
      "count": 2159,
      "max": [
        0.9997569918632507,
        0.9999630451202393,
        0.9998571872711182
      ],
      "min": [
        -0.9997569918632507,
        -0.999995231628418,
        -0.9998934268951416
      ],
      "type": "VEC3"
    },
    {
      "bufferView": 1,
      "componentType": 5126,
      "count": 2159,
      "max": [
        0.9957000017166138,
        0.9939000010490417
      ],
      "min": [
        0.00430000014603138,
        0.006599999964237213
      ],
      "type": "VEC2"
    },
    {
      "bufferView": 0,
      "componentType": 5125,
      "count": 8970,
      "type": "SCALAR"
    },
    {
      "bufferView": 2,
      "byteOffset": 51816,
      "componentType": 5126,
      "count": 189,
      "max": [
        0.07079999893903732,
        0.11760000139474869,
        0.2549999952316284
      ],
      "min": [
        -0.07079999893903732,
        -0.004800000227987766,
        0.16660000383853912
      ],
      "type": "VEC3"
    },
    {
      "bufferView": 2,
      "byteOffset": 54084,
      "componentType": 5126,
      "count": 189,
      "max": [
        0.9994712471961975,
        0.999401330947876,
        0.9993977546691895
      ],
      "min": [
        -0.9994712471961975,
        -0.9931650757789612,
        -0.9948291182518005
      ],
      "type": "VEC3"
    },
    {
      "bufferView": 1,
      "byteOffset": 17272,
      "componentType": 5126,
      "count": 189,
      "max": [
        0.9853000044822693,
        0.9894999861717224
      ],
      "min": [
        0.017799999564886093,
        0.004999999888241291
      ],
      "type": "VEC2"
    },
    {
      "bufferView": 0,
      "byteOffset": 35880,
      "componentType": 5125,
      "count": 642,
      "type": "SCALAR"
    }
  ],
  "asset": {
    "extras": {
      "author": "guinavarro.al (https://sketchfab.com/guinavarro.al)",
      "license": "CC-BY-4.0 (http://creativecommons.org/licenses/by/4.0/)",
      "source": "https://sketchfab.com/3d-models/skye-paw-patrol-free-33139ef6ec4543e397d327d1cd6d5c65",
      "title": "Skye (PAW Patrol) Free"
    },
    "generator": "Sketchfab-14.88.0",
    "version": "2.0"
  },
  "bufferViews": [
    {
      "buffer": 0,
      "byteLength": 38448,
      "name": "floatBufferViews",
      "target": 34963
    },
    {
      "buffer": 0,
      "byteLength": 18784,
      "byteOffset": 38448,
      "byteStride": 8,
      "name": "floatBufferViews",
      "target": 34962
    },
    {
      "buffer": 0,
      "byteLength": 56352,
      "byteOffset": 57232,
      "byteStride": 12,
      "name": "floatBufferViews",
      "target": 34962
    }
  ],
  "buffers": [
    {
      "byteLength": 113584,
      "uri": "scene.bin"
    }
  ],
  "images": [
    {
      "uri": "textures/Material__78_baseColor.png"
    },
    {
      "uri": "textures/Material__79_baseColor.png"
    }
  ],
  "materials": [
    {
      "doubleSided": true,
      "name": "Material__78",
      "pbrMetallicRoughness": {
        "baseColorTexture": {
          "index": 0
        },
        "metallicFactor": 0.0
      }
    },
    {
      "doubleSided": true,
      "name": "Material__79",
      "pbrMetallicRoughness": {
        "baseColorTexture": {
          "index": 1
        },
        "metallicFactor": 0.0
      }
    }
  ],
  "meshes": [
    {
      "name": "Object_0",
      "primitives": [
        {
          "attributes": {
            "NORMAL": 1,
            "POSITION": 0,
            "TEXCOORD_0": 2
          },
          "indices": 3,
          "material": 0,
          "mode": 4
        }
      ]
    },
    {
      "name": "Object_1",
      "primitives": [
        {
          "attributes": {
            "NORMAL": 5,
            "POSITION": 4,
            "TEXCOORD_0": 6
          },
          "indices": 7,
          "material": 1,
          "mode": 4
        }
      ]
    }
  ],
  "nodes": [
    {
      "children": [
        1
      ],
      "matrix": [
        1.0,
        0.0,
        0.0,
        0.0,
        0.0,
        2.220446049250313e-16,
        -1.0,
        0.0,
        0.0,
        1.0,
        2.220446049250313e-16,
        0.0,
        0.0,
        0.0,
        0.0,
        1.0
      ],
      "name": "Sketchfab_model"
    },
    {
      "children": [
        2,
        3
      ],
      "name": "Skye.obj.cleaner.materialmerger.gles"
    },
    {
      "mesh": 0,
      "name": "Object_2"
    },
    {
      "mesh": 1,
      "name": "Object_3"
    }
  ],
  "samplers": [
    {
      "magFilter": 9729,
      "minFilter": 9987,
      "wrapS": 10497,
      "wrapT": 10497
    }
  ],
  "scene": 0,
  "scenes": [
    {
      "name": "Sketchfab_Scene",
      "nodes": [
        0
      ]
    }
  ],
  "textures": [
    {
      "sampler": 0,
      "source": 0
    },
    {
      "sampler": 0,
      "source": 1
    }
  ]
}
